<svg width="22" height="22" viewBox="0 0 22 22" fill="none" xmlns="http://www.w3.org/2000/svg">
    <path
        d="M5.83936 12.8586C5.40156 12.8593 4.96916 12.9555 4.57237 13.1405C4.17557 13.3255 3.82392 13.5949 3.54197 13.9298C3.26003 14.2647 3.05456 14.6572 2.93993 15.0797C2.8253 15.5022 2.80426 15.9447 2.87827 16.3762C2.95229 16.8077 3.11958 17.2179 3.36846 17.578C3.61735 17.9382 3.94185 18.2398 4.3193 18.4616C4.69674 18.6834 5.11806 18.8202 5.55383 18.8624C5.9896 18.9046 6.42933 18.8512 6.84233 18.7059"
        stroke="#BDFF00" strokeWidth="0.875" strokeLinecap="round" strokeLinejoin="round" />
    <path
        d="M3.09484 14.4684C2.49463 14.1794 1.97582 13.7455 1.58523 13.2059C1.19465 12.6663 0.944576 12.0379 0.857593 11.3775C0.770609 10.717 0.849449 10.0453 1.087 9.42298C1.32455 8.80063 1.71333 8.24723 2.21825 7.81272M2.24834 7.73148C1.91941 7.23927 1.77524 6.64656 1.84136 6.05827C1.90747 5.46997 2.17961 4.92405 2.60958 4.51713C3.03956 4.11022 3.59964 3.86856 4.19068 3.83494C4.78172 3.80132 5.3656 3.97791 5.83894 4.33344M6.07765 4.39864C5.91765 4.05868 5.8361 3.68711 5.83902 3.31139C5.84194 2.93567 5.92926 2.56541 6.09453 2.22798C6.2598 1.89056 6.49879 1.59458 6.79383 1.36194C7.08887 1.1293 7.43243 0.965939 7.7991 0.883935C8.16577 0.80193 8.54618 0.803379 8.91221 0.888173C9.27825 0.972967 9.62055 1.13894 9.91381 1.37382C10.2071 1.6087 10.4438 1.90649 10.6065 2.24516C10.7692 2.58384 10.8537 2.95475 10.8538 3.33048V18.8764C10.8538 19.4084 10.6424 19.9186 10.2662 20.2948C9.89005 20.671 9.37983 20.8823 8.84783 20.8823C8.31582 20.8823 7.80561 20.671 7.42943 20.2948C7.05324 19.9186 6.8419 19.4084 6.8419 18.8764M10.8538 5.83789C10.8538 6.63589 11.1708 7.40121 11.735 7.96549C12.2993 8.52976 13.0646 8.84677 13.8626 8.84677M15.8686 12.8586C16.3064 12.8593 16.7388 12.9555 17.1356 13.1405C17.5324 13.3255 17.884 13.5948 18.1659 13.9298C18.4479 14.2647 18.6534 14.6571 18.768 15.0797C18.8826 15.5022 18.9037 15.9447 18.8297 16.3762C18.7556 16.8077 18.5883 17.2178 18.3395 17.578C18.0906 17.9382 17.7661 18.2397 17.3886 18.4616C17.0112 18.6834 16.5899 18.8202 16.1541 18.8624C15.7183 18.9046 15.2786 18.8512 14.8656 18.7059"
        stroke="#BDFF00" strokeWidth="0.875" strokeLinecap="round" strokeLinejoin="round" />
    <path
        d="M18.6124 14.4684C19.2126 14.1794 19.7314 13.7455 20.122 13.2059C20.5126 12.6663 20.7627 12.0379 20.8497 11.3775C20.9367 10.717 20.8578 10.0453 20.6203 9.42298C20.3827 8.80063 19.9939 8.24723 19.489 7.81272M19.4589 7.73148C19.7879 7.23927 19.932 6.64656 19.8659 6.05827C19.7998 5.46997 19.5277 4.92405 19.0977 4.51713C18.6677 4.11022 18.1076 3.86856 17.5166 3.83494C16.9255 3.80132 16.3417 3.97791 15.8683 4.33344M10.8535 3.33048C10.8536 2.95475 10.9381 2.58384 11.1008 2.24516C11.2635 1.90649 11.5002 1.6087 11.7935 1.37382C12.0867 1.13894 12.429 0.972967 12.7951 0.888173C13.1611 0.803379 13.5415 0.80193 13.9082 0.883935C14.2748 0.965939 14.6184 1.1293 14.9134 1.36194C15.2085 1.59458 15.4475 1.89056 15.6127 2.22798C15.778 2.56541 15.8653 2.93567 15.8682 3.31139C15.8712 3.68711 15.7896 4.05868 15.6296 4.39864M14.8654 18.8764C14.8654 19.4084 14.654 19.9186 14.2778 20.2948C13.9017 20.671 13.3914 20.8823 12.8594 20.8823C12.3274 20.8823 11.8172 20.671 11.441 20.2948C11.0649 19.9186 10.8535 19.4084 10.8535 18.8764"
        stroke="#BDFF00" strokeWidth="0.875" strokeLinecap="round" strokeLinejoin="round" />
</svg>