<svg width="33" height="14" viewBox="0 0 33 14" fill="none" xmlns="http://www.w3.org/2000/svg">
    <path
        d="M8.16205 0.344765C8.04907 0.235521 7.91465 0.148811 7.76655 0.0896384C7.61844 0.0304655 7.45959 0 7.29915 0C7.13871 0 6.97986 0.0304655 6.83175 0.0896384C6.68365 0.148811 6.54923 0.235521 6.43625 0.344765L0.359499 6.17247C0.245586 6.28082 0.155171 6.40973 0.0934689 6.55176C0.0317671 6.69379 0 6.84613 0 7C0 7.15387 0.0317671 7.30621 0.0934689 7.44824C0.155171 7.59027 0.245586 7.71918 0.359499 7.82753L6.43625 13.6552C6.54923 13.7645 6.68365 13.8512 6.83175 13.9104C6.97986 13.9695 7.13871 14 7.29915 14C7.45959 14 7.61844 13.9695 7.76655 13.9104C7.91465 13.8512 8.04907 13.7645 8.16205 13.6552C8.27596 13.5469 8.36638 13.418 8.42808 13.2759C8.48978 13.1339 8.52155 12.9816 8.52155 12.8277C8.52155 12.6738 8.48978 12.5215 8.42808 12.3795C8.36638 12.2374 8.27596 12.1085 8.16205 12.0002L2.93604 7L8.16205 1.99983C8.27596 1.89148 8.36638 1.76257 8.42808 1.62054C8.48978 1.47851 8.52155 1.32616 8.52155 1.1723C8.52155 1.01843 8.48978 0.866091 8.42808 0.724059C8.36638 0.582027 8.27596 0.453117 8.16205 0.344765ZM31.9482 6.17247L25.8714 0.344765C25.7581 0.236092 25.6236 0.149888 25.4755 0.091074C25.3275 0.0322604 25.1688 0.00198911 25.0085 0.00198911C24.6849 0.00198911 24.3745 0.125289 24.1456 0.344765C24.0323 0.453438 23.9424 0.582452 23.8811 0.724441C23.8198 0.866429 23.7882 1.01861 23.7882 1.1723C23.7882 1.48268 23.9168 1.78036 24.1456 1.99983L29.3717 7L24.1456 12.0002C24.0317 12.1085 23.9413 12.2374 23.8796 12.3795C23.8179 12.5215 23.7861 12.6738 23.7861 12.8277C23.7861 12.9816 23.8179 13.1339 23.8796 13.2759C23.9413 13.418 24.0317 13.5469 24.1456 13.6552C24.2586 13.7645 24.393 13.8512 24.5411 13.9104C24.6892 13.9695 24.8481 14 25.0085 14C25.169 14 25.3278 13.9695 25.4759 13.9104C25.624 13.8512 25.7585 13.7645 25.8714 13.6552L31.9482 7.82753C32.0621 7.71918 32.1525 7.59027 32.2142 7.44824C32.2759 7.30621 32.3077 7.15387 32.3077 7C32.3077 6.84613 32.2759 6.69379 32.2142 6.55176C32.1525 6.40973 32.0621 6.28082 31.9482 6.17247Z"
        fill="#A9A7B9" />
</svg>
    