<svg width="8" height="9" viewBox="0 0 8 9" fill="none" xmlns="http://www.w3.org/2000/svg">
    <path fill-rule="evenodd" clip-rule="evenodd"
        d="M3.45606 0.789046C3.59285 0.652423 3.77828 0.575684 3.97162 0.575684C4.16495 0.575684 4.35038 0.652423 4.48717 0.789046L7.23907 3.53997C7.30681 3.60774 7.36053 3.68818 7.39718 3.77671C7.43382 3.86524 7.45267 3.96013 7.45265 4.05594C7.45263 4.15176 7.43373 4.24663 7.39704 4.33514C7.36036 4.42365 7.30659 4.50407 7.23883 4.57181C7.17106 4.63955 7.09061 4.69327 7.00208 4.72992C6.91355 4.76656 6.81867 4.78541 6.72286 4.78539C6.62704 4.78537 6.53217 4.76647 6.44366 4.72978C6.35514 4.6931 6.27472 4.63933 6.20699 4.57157L3.97162 2.33668L1.73625 4.57205C1.66898 4.64176 1.5885 4.69738 1.49951 4.73566C1.41052 4.77394 1.3148 4.79411 1.21793 4.79499C1.12106 4.79588 1.02498 4.77747 0.935307 4.74082C0.84563 4.70418 0.764148 4.65005 0.695616 4.58158C0.627084 4.51312 0.572873 4.43168 0.536148 4.34204C0.499423 4.2524 0.480918 4.15634 0.481714 4.05947C0.48251 3.9626 0.50259 3.86686 0.540783 3.77783C0.578976 3.6888 0.634517 3.60828 0.704165 3.54094L3.45606 0.789046Z"
        fill="#BFF816" />
    <path fill-rule="evenodd" clip-rule="evenodd"
        d="M3.45594 4.12425C3.59273 3.98763 3.77816 3.91089 3.97149 3.91089C4.16483 3.91089 4.35026 3.98763 4.48705 4.12425L7.23895 6.87518C7.30668 6.94294 7.36041 7.02339 7.39705 7.11192C7.4337 7.20045 7.45255 7.29533 7.45253 7.39115C7.4525 7.48696 7.43361 7.58183 7.39692 7.67035C7.36023 7.75886 7.30647 7.83928 7.2387 7.90702C7.17094 7.97475 7.09049 8.02848 7.00196 8.06512C6.91343 8.10177 6.81855 8.12062 6.72273 8.12059C6.62692 8.12057 6.53205 8.10168 6.44353 8.06499C6.35502 8.0283 6.2746 7.97454 6.20686 7.90677L3.97149 5.67189L1.73613 7.90726C1.66886 7.97697 1.58838 8.03259 1.49939 8.07086C1.4104 8.10914 1.31468 8.12931 1.21781 8.1302C1.12094 8.13108 1.02486 8.11267 0.935185 8.07603C0.845508 8.03939 0.764026 7.98526 0.695494 7.91679C0.626961 7.84832 0.572751 7.76689 0.536026 7.67725C0.499301 7.58761 0.480796 7.49155 0.481592 7.39468C0.482388 7.29781 0.502468 7.20206 0.540661 7.11304C0.578854 7.02401 0.634395 6.94348 0.704043 6.87615L3.45594 4.12425Z"
        fill="#BFF816" />
</svg>
    