<svg width="12" height="8" viewBox="0 0 12 8" fill="none" xmlns="http://www.w3.org/2000/svg">
    <path
        d="M0.295513 1.00396C0.201875 1.1008 0.127553 1.21602 0.0768329 1.34296C0.0261132 1.4699 0 1.60606 0 1.74359C0 1.88111 0.0261132 2.01727 0.0768329 2.14421C0.127553 2.27115 0.201875 2.38637 0.295513 2.48321L5.29069 7.69186C5.38356 7.7895 5.49405 7.867 5.61579 7.91988C5.73754 7.97277 5.86812 8 6 8C6.13188 8 6.26246 7.97277 6.38421 7.91988C6.50595 7.867 6.61644 7.7895 6.70931 7.69186L11.7045 2.48321C11.7981 2.38637 11.8724 2.27115 11.9232 2.14421C11.9739 2.01727 12 1.88111 12 1.74359C12 1.60606 11.9739 1.4699 11.9232 1.34296C11.8724 1.21602 11.7981 1.1008 11.7045 1.00396C11.6116 0.906318 11.5011 0.828819 11.3794 0.775932C11.2576 0.723044 11.1271 0.695816 10.9952 0.695816C10.8633 0.695816 10.7327 0.723044 10.611 0.775932C10.4892 0.828819 10.3787 0.906318 10.2859 1.00396L6 5.48339L1.71414 1.00396C1.62127 0.906318 1.51077 0.828819 1.38903 0.775932C1.26729 0.723044 1.13671 0.695816 1.00483 0.695816C0.872943 0.695816 0.742363 0.723044 0.620622 0.775932C0.49888 0.828819 0.388386 0.906318 0.295513 1.00396Z"
        fill="#535353" />
</svg>
    