<svg width="12" height="8" viewBox="0 0 12 8" fill="none" xmlns="http://www.w3.org/2000/svg">
    <path
        d="M11.7045 7.69184C11.7981 7.595 11.8724 7.47978 11.9232 7.35284C11.9739 7.2259 12 7.08974 12 6.95222C12 6.81469 11.9739 6.67853 11.9232 6.55159C11.8724 6.42465 11.7981 6.30943 11.7045 6.21259L6.70931 1.00394C6.61644 0.906303 6.50595 0.828804 6.38421 0.775917C6.26246 0.72303 6.13188 0.695801 6 0.695801C5.86812 0.695801 5.73754 0.72303 5.61579 0.775917C5.49405 0.828804 5.38356 0.906303 5.29069 1.00394L0.295513 6.21259C0.201876 6.30943 0.127551 6.42465 0.0768318 6.55159C0.0261116 6.67853 0 6.81469 0 6.95222C0 7.08974 0.0261116 7.2259 0.0768318 7.35284C0.127551 7.47978 0.201876 7.595 0.295513 7.69184C0.388387 7.78948 0.498879 7.86698 0.620621 7.91987C0.742363 7.97276 0.872943 7.99999 1.00483 7.99999C1.13671 7.99999 1.26729 7.97276 1.38903 7.91987C1.51077 7.86698 1.62127 7.78948 1.71414 7.69184L6 3.21241L10.2859 7.69184C10.3787 7.78948 10.4892 7.86698 10.611 7.91987C10.7327 7.97276 10.8633 7.99999 10.9952 7.99999C11.1271 7.99999 11.2576 7.97276 11.3794 7.91987C11.5011 7.86698 11.6116 7.78948 11.7045 7.69184Z"
        fill="#535353" />
</svg>
    