<svg width="8" height="9" viewBox="0 0 8 9" fill="none" xmlns="http://www.w3.org/2000/svg">
    <path fill-rule="evenodd" clip-rule="evenodd"
        d="M3.60063 7.91678C3.73742 8.05339 3.92283 8.13013 4.11615 8.13013C4.30947 8.13013 4.49489 8.05339 4.63167 7.91678L7.38338 5.16604C7.45111 5.09828 7.50484 5.01784 7.54148 4.92932C7.57812 4.84079 7.59697 4.74592 7.59695 4.65011C7.59693 4.5543 7.57803 4.45943 7.54135 4.37093C7.50466 4.28242 7.4509 4.20201 7.38314 4.13427C7.31538 4.06654 7.23494 4.01282 7.14641 3.97618C7.05789 3.93954 6.96301 3.92069 6.86721 3.92071C6.7714 3.92073 6.67653 3.93963 6.58802 3.97631C6.49952 4.013 6.4191 4.06675 6.35137 4.13452L4.11615 6.36925L1.88094 4.13403C1.81368 4.06432 1.7332 4.00871 1.64422 3.97044C1.55523 3.93216 1.45952 3.91199 1.36265 3.91111C1.26579 3.91022 1.16972 3.92863 1.08005 3.96527C0.99038 4.00191 0.908904 4.05604 0.840377 4.1245C0.771849 4.19296 0.717642 4.27439 0.68092 4.36403C0.644197 4.45366 0.625694 4.54971 0.626489 4.64658C0.627285 4.74344 0.647364 4.83918 0.685554 4.9282C0.723745 5.01722 0.779282 5.09774 0.848925 5.16507L3.60063 7.91678Z"
        fill="#FF4000" />
    <path fill-rule="evenodd" clip-rule="evenodd"
        d="M3.60076 4.58182C3.73754 4.71843 3.92296 4.79517 4.11628 4.79517C4.3096 4.79517 4.49501 4.71843 4.6318 4.58182L7.38351 1.83108C7.45124 1.76332 7.50496 1.68288 7.5416 1.59435C7.57824 1.50583 7.59709 1.41096 7.59707 1.31515C7.59705 1.21934 7.57815 1.12447 7.54147 1.03597C7.50478 0.947459 7.45103 0.867044 7.38326 0.799313C7.3155 0.731582 7.23506 0.677861 7.14653 0.641218C7.05801 0.604574 6.96314 0.585725 6.86733 0.585748C6.77152 0.585771 6.67665 0.604664 6.58815 0.641349C6.49964 0.678035 6.41922 0.731793 6.35149 0.799556L4.11628 3.03429L1.88106 0.79907C1.8138 0.729363 1.73333 0.67375 1.64434 0.635476C1.55536 0.597201 1.45964 0.577033 1.36278 0.576146C1.26591 0.575259 1.16984 0.593672 1.08017 0.63031C0.990503 0.666948 0.909026 0.721077 0.840499 0.78954C0.771971 0.858003 0.717765 0.939429 0.681042 1.02906C0.644319 1.1187 0.625816 1.21475 0.626612 1.31162C0.627407 1.40848 0.647486 1.50422 0.685677 1.59324C0.723867 1.68226 0.779404 1.76278 0.849047 1.83011L3.60076 4.58182Z"
        fill="#FF4000" />
</svg>
    