<svg width="27" height="32" viewBox="0 0 27 32" fill="none" xmlns="http://www.w3.org/2000/svg">
    <path
        d="M27 2.66667C27 1.95942 26.7155 1.28115 26.2092 0.781049C25.7028 0.280952 25.0161 0 24.3 0C23.5839 0 22.8971 0.280952 22.3908 0.781049C21.8844 1.28115 21.6 1.95942 21.6 2.66667L21.6 29.3333C21.6 30.0406 21.8844 30.7189 22.3908 31.219C22.8971 31.719 23.5839 32 24.3 32C25.0161 32 25.7028 31.719 26.2092 31.219C26.7155 30.7189 27 30.0406 27 29.3333L27 2.66667ZM13.5 10.6667C14.2161 10.6667 14.9028 10.9476 15.4092 11.4477C15.9155 11.9478 16.2 12.6261 16.2 13.3333L16.2 29.3333C16.2 30.0406 15.9155 30.7189 15.4092 31.219C14.9028 31.719 14.2161 32 13.5 32C12.7839 32 12.0972 31.719 11.5908 31.219C11.0845 30.7189 10.8 30.0406 10.8 29.3333L10.8 13.3333C10.8 12.6261 11.0845 11.9478 11.5908 11.4477C12.0972 10.9476 12.7839 10.6667 13.5 10.6667ZM5.40001 24C5.40001 23.2927 5.11554 22.6145 4.60919 22.1144C4.10284 21.6143 3.41609 21.3333 2.7 21.3333C1.98392 21.3333 1.29718 21.6143 0.790831 22.1144C0.284483 22.6145 0 23.2927 0 24L0 29.3333C0 30.0406 0.284483 30.7189 0.790831 31.219C1.29718 31.719 1.98392 32 2.7 32C3.41609 32 4.10284 31.719 4.60919 31.219C5.11554 30.7189 5.40001 30.0406 5.40001 29.3333L5.40001 24Z"
        fill="#F8F8F8" />
</svg>
    