<svg width="15" height="16" viewBox="0 0 15 16" fill="none" xmlns="http://www.w3.org/2000/svg">
    <path
        d="M7.33474 0.00683594C11.3857 0.00683594 14.6695 3.26063 14.6695 7.27464C14.6695 11.2887 11.3857 14.5424 7.33474 14.5424C3.28376 14.5424 0 11.2887 0 7.27464C0 3.26063 3.28376 0.00683594 7.33474 0.00683594ZM7.33474 1.4604C5.7785 1.4604 4.28601 2.07297 3.18558 3.16335C2.08516 4.25373 1.46695 5.73261 1.46695 7.27464C1.46695 8.81668 2.08516 10.2956 3.18558 11.3859C4.28601 12.4763 5.7785 13.0889 7.33474 13.0889C8.89097 13.0889 10.3835 12.4763 11.4839 11.3859C12.5843 10.2956 13.2025 8.81668 13.2025 7.27464C13.2025 5.73261 12.5843 4.25373 11.4839 3.16335C10.3835 2.07297 8.89097 1.4604 7.33474 1.4604ZM7.33474 2.91396C7.51439 2.91398 7.68779 2.97934 7.82204 3.09763C7.95629 3.21592 8.04206 3.37892 8.06308 3.55571L8.06821 3.64074V6.97376L10.0537 8.94115C10.1853 9.07194 10.2616 9.24744 10.2673 9.43201C10.273 9.61657 10.2076 9.79636 10.0844 9.93486C9.9611 10.0734 9.78927 10.1602 9.60376 10.1777C9.41825 10.1952 9.23296 10.1421 9.08554 10.0291L9.0166 9.96882L6.81617 7.78848C6.70218 7.67542 6.62896 7.52829 6.60787 7.36985L6.60127 7.27464V3.64074C6.60127 3.44798 6.67854 3.26313 6.8161 3.12683C6.95365 2.99053 7.14021 2.91396 7.33474 2.91396Z"
        fill="#545454" />
</svg>