<svg width="20" height="20" viewBox="0 0 24 24" fill="none" xmlns="http://www.w3.org/2000/svg">
    <path fill-rule="evenodd" clip-rule="evenodd"
        d="M6.64516 5C6.64516 4.44771 7.09288 4 7.64516 4H19.847L19.7554 4.64142C19.685 5.13407 19.2631 5.5 18.7654 5.5H13.9677V10.931C13.9677 11.4833 13.52 11.931 12.9677 11.931H8.5V16.0257H6.72593L6.70601 16.0215C6.56063 15.9909 6.4138 15.9936 6.27489 16.0257H5.43481L6.64516 14.3185V5ZM4.61439 18.0257H3.5C3.12605 18.0257 2.78334 17.817 2.61164 17.4848C2.43994 17.1526 2.46794 16.7524 2.68423 16.4473L4.64516 13.6815V5C4.64516 3.34315 5.98831 2 7.64516 2H21C21.2899 2 21.5655 2.1258 21.7555 2.3448C21.9454 2.5638 22.031 2.85444 21.99 3.14142L21.7353 4.92426C21.5687 6.09014 20.7459 7.01945 19.6729 7.35992L19.7749 8.19762L21.1088 10.5469C21.3652 10.9985 21.5 11.5089 21.5 12.0282V12.5C21.5 12.9573 21.1898 13.3563 20.7467 13.4691L19.8065 13.7084V15.4165C19.8065 16.209 19.4929 16.9693 18.9342 17.5314L17.2822 19.1934L18.3575 20.9856C18.5429 21.2945 18.5477 21.6792 18.3702 21.9927C18.1927 22.3063 17.8603 22.5 17.5 22.5H3.5C3.13121 22.5 2.79235 22.2971 2.61833 21.9719C2.44431 21.6467 2.46338 21.2522 2.66795 20.9453L4.61439 18.0257ZM6.88911 18.2192L5.36852 20.5H15.7338L15.367 19.8887L14.9161 19.7938L6.88911 18.2192ZM15.3146 17.8338L15.7323 17.9158L17.5157 16.1215C17.7019 15.9341 17.8065 15.6807 17.8065 15.4165V12.1537L19.4557 11.7339C19.4344 11.6648 19.4056 11.5979 19.3696 11.5344L17.838 8.83686L17.6752 7.5H15.9677V10.931C15.9677 12.5879 14.6246 13.931 12.9677 13.931H10.5V16.8202L15.3146 17.8338Z"
        fill="#BFF816"></path>
</svg>