<svg width="50" height="50" viewBox="0 0 50 50" fill="none" xmlns="http://www.w3.org/2000/svg">
    <rect width="50" height="50" rx="5" fill="#D9D9D9" />
    <path
        d="M22.2727 17.7273L24.5455 22.7273L29.5455 25L24.5455 27.2727L22.2727 32.2727L20 27.2727L15 25L20 22.7273L22.2727 17.7273ZM22.2727 22.1182L21.3636 24.0909L19.3909 25L21.3636 25.9091L22.2727 27.8818L23.1818 25.9091L25.1545 25L23.1818 24.0909L22.2727 22.1182ZM31.3636 22.2727L30.2182 19.7818L27.7273 18.6364L30.2182 17.5L31.3636 15L32.5 17.5L35 18.6364L32.5 19.7818L31.3636 22.2727ZM31.3636 35L30.2182 32.5091L27.7273 31.3636L30.2182 30.2273L31.3636 27.7273L32.5 30.2273L35 31.3636L32.5 32.5091L31.3636 35Z"
        fill="black" />
</svg>
    