<svg width="22" height="20" viewBox="0 0 22 20" fill="none" xmlns="http://www.w3.org/2000/svg">
    <path fill-rule="evenodd" clip-rule="evenodd"
        d="M2.84508 7.36922C2.84508 5.41478 3.62148 3.54039 5.00347 2.15839C6.38547 0.776397 8.25986 0 10.2143 0C12.1687 0 14.0431 0.776397 15.4251 2.15839C16.8071 3.54039 17.5835 5.41478 17.5835 7.36922V11.3318L19.5016 15.168C19.5899 15.3445 19.6316 15.5407 19.6227 15.7379C19.6139 15.9352 19.5547 16.1268 19.4509 16.2948C19.3471 16.4627 19.2021 16.6013 19.0297 16.6974C18.8573 16.7935 18.6631 16.844 18.4657 16.8439H14.2926C14.0585 17.7474 13.5309 18.5476 12.7927 19.1188C12.0546 19.6901 11.1477 20 10.2143 20C9.28094 20 8.374 19.6901 7.63585 19.1188C6.8977 18.5476 6.37013 17.7474 6.13596 16.8439H1.96288C1.76547 16.844 1.57132 16.7935 1.39889 16.6974C1.22645 16.6013 1.08145 16.4627 0.977662 16.2948C0.873869 16.1268 0.814728 15.9352 0.805857 15.7379C0.796987 15.5407 0.83868 15.3445 0.926977 15.168L2.84508 11.3318V7.36922ZM8.39094 16.8439C8.57575 17.164 8.84153 17.4297 9.1616 17.6145C9.48166 17.7993 9.84472 17.8966 10.2143 17.8966C10.5839 17.8966 10.9469 17.7993 11.267 17.6145C11.5871 17.4297 11.8529 17.164 12.0377 16.8439H8.39094ZM10.2143 2.10549C8.81827 2.10549 7.47942 2.66006 6.49228 3.6472C5.50514 4.63434 4.95057 5.97319 4.95057 7.36922V11.3318C4.95055 11.6585 4.8745 11.9807 4.72844 12.2729L3.49673 14.7384H16.9329L15.7012 12.2729C15.5548 11.9808 15.4784 11.6585 15.478 11.3318V7.36922C15.478 5.97319 14.9235 4.63434 13.9363 3.6472C12.9492 2.66006 11.6103 2.10549 10.2143 2.10549Z"
        fill="#535353" />
    <circle cx="19" cy="16" r="2.85" fill="#BFF816" stroke="white" strokeWidth="0.3" />
</svg>
    