<svg xmlns="http://www.w3.org/2000/svg" xmlns:xlink="http://www.w3.org/1999/xlink"
    aria-hidden="true" role="img" class="c-PJLV c-gHxfPE iconify iconify--bx" width="1em"
    height="1em" viewBox="0 0 24 24">
    <path fill="#FFFFFF"
        d="M10 3H4a1 1 0 0 0-1 1v6a1 1 0 0 0 1 1h6a1 1 0 0 0 1-1V4a1 1 0 0 0-1-1M9 9H5V5h4zm5 2h6a1 1 0 0 0 1-1V4a1 1 0 0 0-1-1h-6a1 1 0 0 0-1 1v6a1 1 0 0 0 1 1m1-6h4v4h-4zM3 20a1 1 0 0 0 1 1h6a1 1 0 0 0 1-1v-6a1 1 0 0 0-1-1H4a1 1 0 0 0-1 1zm2-5h4v4H5zm8 5a1 1 0 0 0 1 1h6a1 1 0 0 0 1-1v-6a1 1 0 0 0-1-1h-6a1 1 0 0 0-1 1zm2-5h4v4h-4z"></path>
</svg>