<svg width="10" height="14" viewBox="0 0 10 14" fill="none" xmlns="http://www.w3.org/2000/svg">
    <path
        d="M5.24263 13.6538L5.88461 12.3698V10.4439H9.0945C9.26477 10.4439 9.42806 10.3763 9.54845 10.2559C9.66884 10.1355 9.73648 9.97217 9.73648 9.80191V8.78373C9.73648 8.44605 9.5991 8.11479 9.36028 7.87598L8.45252 6.96822V4.66608C8.62279 4.66608 8.78608 4.59844 8.90647 4.47805C9.02687 4.35766 9.0945 4.19437 9.0945 4.0241V2.09817C9.0945 1.39006 8.51865 0.814209 7.81054 0.814209H2.67472C1.96661 0.814209 1.39076 1.39006 1.39076 2.09817V4.0241C1.39076 4.19437 1.45839 4.35766 1.57879 4.47805C1.69918 4.59844 1.86247 4.66608 2.03274 4.66608V6.96822L1.12498 7.87598C0.884173 8.11671 0.748852 8.44323 0.748779 8.78373V9.80191C0.748779 9.97217 0.816416 10.1355 0.936811 10.2559C1.0572 10.3763 1.22049 10.4439 1.39076 10.4439H4.60065V12.3698L5.24263 13.6538ZM2.67472 2.09817H7.81054V3.38212H2.67472V2.09817ZM2.03274 8.78373L3.12859 7.68788C3.249 7.56751 3.31666 7.40425 3.31669 7.234V4.66608H7.16857V7.234C7.16857 7.40476 7.23597 7.56783 7.35667 7.68788L8.45252 8.78373V9.15993H2.03274V8.78373Z"
        fill="#BFF816" />
</svg>
    