<svg width="13" height="14" viewBox="0 0 13 14" fill="none" xmlns="http://www.w3.org/2000/svg">
    <path fill-rule="evenodd" clip-rule="evenodd"
        d="M4.538 0.814209C4.92149 0.814188 5.30059 0.895765 5.65012 1.05352C5.99966 1.21128 6.31163 1.4416 6.5653 1.7292C6.81898 1.4416 7.13095 1.21128 7.48048 1.05352C7.83002 0.895765 8.20912 0.814188 8.5926 0.814209H8.93049C9.19933 0.814209 9.45715 0.921004 9.64725 1.1111C9.83734 1.3012 9.94414 1.55902 9.94414 1.82786V2.16574C9.94414 2.65838 9.81236 3.11993 9.5826 3.51728H11.2957C11.6541 3.51728 11.9979 3.65967 12.2514 3.91313C12.5048 4.16659 12.6472 4.51036 12.6472 4.86881V6.89611C12.6472 7.13335 12.5848 7.36641 12.4661 7.57186C12.3475 7.77731 12.1769 7.94792 11.9714 8.06654V11.6265C11.9714 12.1642 11.7579 12.6798 11.3777 13.06C10.9975 13.4402 10.4818 13.6538 9.94414 13.6538H3.18647C2.64879 13.6538 2.13314 13.4402 1.75295 13.06C1.37276 12.6798 1.15917 12.1642 1.15917 11.6265V8.06654C0.953711 7.94792 0.7831 7.77731 0.664478 7.57186C0.545857 7.36641 0.483404 7.13335 0.483398 6.89611V4.86881C0.483398 4.51036 0.625792 4.16659 0.879254 3.91313C1.13272 3.65967 1.47648 3.51728 1.83493 3.51728H3.548C3.31097 3.1063 3.18628 2.64018 3.18647 2.16574V1.82786C3.18647 1.55902 3.29326 1.3012 3.48336 1.1111C3.67345 0.921004 3.93128 0.814209 4.20012 0.814209H4.538ZM10.6199 8.24765H7.24107V12.3022H9.94414L10.0232 12.2975C10.174 12.2797 10.3145 12.2116 10.4219 12.1042C10.5293 11.9968 10.5974 11.8564 10.6152 11.7055L10.6199 11.6265V8.24765ZM5.88954 8.24765H2.5107V11.6265C2.51072 11.792 2.57149 11.9518 2.68148 12.0754C2.79146 12.1991 2.94302 12.2782 3.1074 12.2975L3.18647 12.3022H5.88954V8.24765ZM11.2957 4.86881H7.24107V6.89611H11.2957V4.86881ZM5.88954 4.86881H1.83493V6.89611H5.88954V4.86881ZM4.538 2.16574C4.538 2.52419 4.6804 2.86796 4.93386 3.12142C5.18732 3.37488 5.53109 3.51728 5.88954 3.51728C5.88954 3.15883 5.74714 2.81506 5.49368 2.5616C5.24022 2.30814 4.89645 2.16574 4.538 2.16574ZM8.5926 2.16574C8.23416 2.16574 7.89039 2.30814 7.63693 2.5616C7.38346 2.81506 7.24107 3.15883 7.24107 3.51728C7.59952 3.51728 7.94329 3.37488 8.19675 3.12142C8.45021 2.86796 8.5926 2.52419 8.5926 2.16574Z"
        fill="#848484" />
</svg>
    