<svg width="21" height="29" viewBox="0 0 21 29" fill="none" xmlns="http://www.w3.org/2000/svg">
    <path
        d="M10.45 19.9C7.9437 19.9 5.54006 18.9044 3.76784 17.1322C1.99562 15.3599 1 12.9563 1 10.45C1 7.9437 1.99562 5.54006 3.76784 3.76784C5.54006 1.99562 7.9437 1 10.45 1C12.9563 1 15.3599 1.99562 17.1322 3.76784C18.9044 5.54006 19.9 7.9437 19.9 10.45C19.9 12.9563 18.9044 15.3599 17.1322 17.1322C15.3599 18.9044 12.9563 19.9 10.45 19.9ZM10.45 19.9V28M10.45 24.625C10.45 24.625 11.8 22.6 14.5 22.6C17.2 22.6 18.55 24.625 18.55 24.625C18.55 24.625 17.2 26.65 14.5 26.65C11.8 26.65 10.45 24.625 10.45 24.625ZM10.45 24.625C10.45 24.625 9.1 26.65 6.4 26.65C3.7 26.65 2.35 24.625 2.35 24.625C2.35 24.625 3.7 22.6 6.4 22.6C9.1 22.6 10.45 24.625 10.45 24.625Z"
        stroke="#F8F8F8" strokeWidth="1.5" strokeLinecap="round" strokeLinejoin="round" />
    <path
        d="M8.34052 14.0505V6.8496M10.4492 6.8496V5.05005M10.4492 15.85V14.0505M8.34052 10.45H12.5579M12.5579 10.45C13.2572 10.45 13.8242 11.0548 13.8242 11.8V12.7005C13.8242 13.4457 13.2572 14.0505 12.5593 14.0505H7.07422M12.5579 10.45C13.2559 10.45 13.8242 9.84525 13.8242 9.10005V8.1996C13.8242 7.4544 13.2572 6.8496 12.5593 6.8496H7.07422"
        stroke="#F8F8F8" strokeWidth="1.5" strokeLinecap="round" strokeLinejoin="round" />
</svg>
    