<svg width="21" height="21" viewBox="0 0 21 21" fill="none" xmlns="http://www.w3.org/2000/svg">
    <path
        d="M4.63694 18.929V16.862H8.77107V13.658C7.92702 13.4685 7.17358 13.1113 6.51074 12.5862C5.8479 12.0612 5.3611 11.4022 5.05035 10.6091C3.75844 10.4541 2.67771 9.8901 1.80816 8.9172C0.938614 7.9443 0.503497 6.80294 0.502808 5.49311V4.45957C0.502808 3.89113 0.70538 3.40468 1.11053 3.00022C1.51567 2.59577 2.00212 2.3932 2.56987 2.39251H4.63694V0.325439H14.9723V2.39251H17.0393C17.6078 2.39251 18.0946 2.59508 18.4997 3.00022C18.9049 3.40537 19.1071 3.89182 19.1064 4.45957V5.49311C19.1064 6.80225 18.6713 7.94361 17.8011 8.9172C16.9308 9.89079 15.8501 10.4548 14.5589 10.6091C14.2488 11.4015 13.7623 12.0605 13.0995 12.5862C12.4367 13.112 11.6829 13.4692 10.8381 13.658V16.862H14.9723V18.929H4.63694ZM4.63694 8.387V4.45957H2.56987V5.49311C2.56987 6.14768 2.75936 6.73782 3.13832 7.26355C3.51728 7.78927 4.01682 8.16376 4.63694 8.387ZM9.80461 11.6943C10.6659 11.6943 11.398 11.3929 12.0009 10.79C12.6038 10.1871 12.9052 9.45498 12.9052 8.59371V2.39251H6.70401V8.59371C6.70401 9.45498 7.00545 10.1871 7.60835 10.79C8.21124 11.3929 8.94333 11.6943 9.80461 11.6943ZM14.9723 8.387C15.5924 8.16307 16.0919 7.78824 16.4709 7.26252C16.8499 6.73679 17.0393 6.14699 17.0393 5.49311V4.45957H14.9723V8.387Z"
        fill="#BDFF00" />
</svg>
    