<svg width="25" height="24" viewBox="0 0 25 24" fill="none" xmlns="http://www.w3.org/2000/svg">
    <path
        d="M17.388 15.0943H16.304L15.9197 14.7238C17.3111 13.1102 18.0758 11.05 18.0741 8.91938C18.0741 7.1553 17.551 5.43083 16.5709 3.96404C15.5909 2.49726 14.1978 1.35404 12.568 0.678951C10.9382 0.00386463 9.14484 -0.172769 7.41465 0.171387C5.68446 0.515544 4.09518 1.36503 2.84778 2.61243C1.60038 3.85983 0.750895 5.44911 0.406739 7.1793C0.0625827 8.90949 0.239216 10.7029 0.914303 12.3327C1.58939 13.9625 2.73261 15.3555 4.19939 16.3356C5.66618 17.3157 7.39065 17.8388 9.15474 17.8388C11.364 17.8388 13.3949 17.0292 14.9592 15.6844L15.3297 16.0686V17.1527L22.1908 24L24.2354 21.9554L17.388 15.0943ZM9.15474 15.0943C5.73793 15.0943 2.97978 12.3362 2.97978 8.91938C2.97978 5.50258 5.73793 2.74443 9.15474 2.74443C12.5715 2.74443 15.3297 5.50258 15.3297 8.91938C15.3297 12.3362 12.5715 15.0943 9.15474 15.0943Z"
        fill="#848484" />
</svg>
    