<svg width="14" height="15" viewBox="0 0 14 15" fill="none" xmlns="http://www.w3.org/2000/svg">
    <path
        d="M5.01411 2.53952L6.57679 5.97741L10.0147 7.54008L6.57679 9.10276L5.01411 12.5406L3.45144 9.10276L0.0135498 7.54008L3.45144 5.97741L5.01411 2.53952ZM5.01411 5.55861L4.38904 6.91501L3.03264 7.54008L4.38904 8.16515L5.01411 9.52156L5.63919 8.16515L6.99559 7.54008L5.63919 6.91501L5.01411 5.55861ZM11.2648 5.66487L10.4772 3.95218L8.76454 3.16459L10.4772 2.38325L11.2648 0.664307L12.0462 2.38325L13.7651 3.16459L12.0462 3.95218L11.2648 5.66487ZM11.2648 14.4159L10.4772 12.7032L8.76454 11.9156L10.4772 11.1342L11.2648 9.4153L12.0462 11.1342L13.7651 11.9156L12.0462 12.7032L11.2648 14.4159Z"
        fill="#F8F8F8" />
</svg>
    