<svg width="15" height="14" viewBox="0 0 15 14" fill="none" xmlns="http://www.w3.org/2000/svg">
    <path fill-rule="evenodd" clip-rule="evenodd"
        d="M6.67548 1.2189C6.74723 1.09576 6.85002 0.993596 6.97359 0.922586C7.09715 0.851577 7.23718 0.814209 7.3797 0.814209C7.52221 0.814209 7.66224 0.851577 7.78581 0.922586C7.90937 0.993596 8.01216 1.09576 8.08392 1.2189L9.90641 4.34746L13.4458 5.11428C13.585 5.14453 13.7139 5.21075 13.8195 5.30633C13.9252 5.40191 14.0039 5.52351 14.0479 5.65902C14.0919 5.79453 14.0996 5.9392 14.0703 6.07862C14.041 6.21803 13.9756 6.34732 13.8807 6.4536L11.4681 9.15376L11.8332 12.7564C11.8476 12.8982 11.8246 13.0414 11.7664 13.1715C11.7081 13.3017 11.6168 13.4143 11.5014 13.4981C11.3861 13.5819 11.2507 13.634 11.109 13.6492C10.9672 13.6643 10.8239 13.642 10.6934 13.5845L7.3797 12.1239L4.06595 13.5845C3.93549 13.642 3.79221 13.6643 3.65043 13.6492C3.50865 13.634 3.37333 13.5819 3.25797 13.4981C3.14261 13.4143 3.05126 13.3017 2.99304 13.1715C2.93481 13.0414 2.91175 12.8982 2.92616 12.7564L3.29131 9.15376L0.878702 6.45425C0.78365 6.34798 0.718137 6.21864 0.688702 6.07914C0.659267 5.93963 0.66694 5.79485 0.710956 5.65924C0.754972 5.52363 0.833791 5.40193 0.939543 5.30631C1.04529 5.21068 1.17428 5.14447 1.31362 5.11428L4.85298 4.34746L6.67548 1.2189ZM7.3797 2.6006L5.87149 5.19057C5.81446 5.28833 5.7377 5.37314 5.64609 5.4396C5.55449 5.50606 5.45004 5.55271 5.33942 5.57658L2.41038 6.21104L4.40698 8.44563C4.55956 8.61647 4.63324 8.84338 4.61042 9.07095L4.30851 12.0528L7.05106 10.8439C7.15462 10.7983 7.26654 10.7747 7.3797 10.7747C7.49286 10.7747 7.60478 10.7983 7.70833 10.8439L10.4509 12.0528L10.149 9.07095C10.1375 8.95835 10.1496 8.8446 10.1845 8.73694C10.2194 8.62928 10.2764 8.53007 10.3518 8.44563L12.349 6.21104L9.41998 5.57658C9.30935 5.55271 9.20491 5.50606 9.1133 5.4396C9.02169 5.37314 8.94493 5.28833 8.8879 5.19057L7.3797 2.6006Z"
        fill="#848484" />
</svg>
    